# xmcd
#
# Track frame offsets:
#	150
#	10229
#	26033
#	39471
#	52750
#	72584
#
# Disc length: 1133 seconds
#
# Revision: 1
# Processed by: cddbd v1.5.2PL0 Copyright (c) Steve Scherf et al.
# Submitted via: audiograbber 1.83.01
#
DISCID=47046b06
DTITLE=Dust Bowl Cavaliers, The - Volume One: Sweet Tomorrow
DYEAR=2006
DGENRE=Bluegrass
TTITLE0=Penny's Farm
TTITLE1=Hurry Back Home
TTITLE2=Yoshimi Battles the Pink Robots Pt. 1
TTITLE3=In the Pines
TTITLE4=Other Side of the Hill, The
TTITLE5=Take It on the Run
EXTD=
EXTT0=
EXTT1=
EXTT2=
EXTT3=
EXTT4=
EXTT5=
PLAYORDER=
